<?xml version="1.0" encoding="UTF-8" standalone="yes"?>
<svg height="300" version="1.1" viewBox="0 0 300 300" width="300" xmlns="http://www.w3.org/2000/svg" xml:space="preserve" xmlns:cc="http://creativecommons.org/ns#">
  <path d="M 150,4.0098624 A 145.99014,145.99013 0 0 0 4.0098624,150 145.99014,145.99013 0 0 0 150,295.99013 145.99014,145.99013 0 0 0 295.99014,150 145.99014,145.99013 0 0 0 294.8876,132.27779 114.25453,114.25453 0 0 1 181.73575,232.51864 114.25453,114.25453 0 0 1 67.481356,118.26426 114.25453,114.25453 0 0 1 167.72221,5.1123921 145.99014,145.99013 0 0 0 150,4.0098624 Z" id="crescent" style="fill-opacity:1.0; fill:#FFFFFF; stroke-dasharray:none; stroke-dashoffset:0.00000; stroke-linecap:square; stroke-linejoin:miter; stroke-miterlimit:9.00000; stroke-opacity:1.0; stroke-width:8.01973; stroke:#0000FF">
    <desc>&#x1F319;</desc>
    <title>Lapys</title>
  </path>
</svg>
